<svg viewBox="0 0 512 512" xmlns="http://www.w3.org/2000/svg"><path d="m301 301c-18.3125 0-30 8.878906-30 15s11.6875 15 30 15 30-8.878906 30-15-11.6875-15-30-15zm0 0"/><path d="m256 0c-140.609375 0-256 115.390625-256 256s115.390625 256 256 256 256-115.390625 256-256-115.390625-256-256-256zm105 166v150c0 25.238281-26.351562 45-60 45s-60-19.761719-60-45 26.351562-45 60-45c11.0625 0 21.191406 2.304688 30 6.066406v-88.917968l-120 48v109.851562c0 25.238281-26.351562 45-60 45s-60-19.761719-60-45 26.351562-45 60-45c11.0625 0 21.191406 2.304688 30 6.066406v-151.21875l180-71.996094zm0 0"/><path d="m151 331c-18.3125 0-30 8.878906-30 15s11.6875 15 30 15 30-8.878906 30-15-11.6875-15-30-15zm0 0"/><path d="m331 128.148438-120 48.003906v27.699218l120-48.003906zm0 0"/></svg>